# xmcd
#
# Track frame offsets:
#	150
#	12037
#	22957
#	34936
#	45762
#	57619
#	72405
#	86802
#	99261
#	111970
#	120288
#	132737
#	144348
#	152966
#	166754
#	178754
#	189674
#	201747
#	216778
#	228805
#	240613
#	251297
#	263713
#	276347
#	286707
#
# Disc length: 3973 seconds
# Revision: 0
# Processed by: cddbd v1.5.2PL0 Copyright (c) Steve Scherf et al.
# Submitted via: dBpowerAMP V12.0
#
DISCID=610f8319
DTITLE=Gene Autry - The Definitive Collection [Disc 1]
DYEAR=1900
DGENRE=
TTITLE0=01 Back in the Saddle Again
TTITLE1=02 You Are My Sunshine
TTITLE2=03 Home on the Range
TTITLE3=04 Diesel Smoke, Dangerous Curves
TTITLE4=05 That Silver Haired Daddy of Mine
TTITLE5=06 Riders in the Sky
TTITLE6=07 Take Me Back to My Boots and Saddle
TTITLE7=08 Be Honest with Me
TTITLE8=09 Blues Stay Away from Me
TTITLE9=10 Tweedle-O-Twill
TTITLE10=11 Have I Told You Lately That I Love You
TTITLE11=12 I Hang My Head and Cry
TTITLE12=13 Tears on My Pillow
TTITLE13=14 Mexicali Rose
TTITLE14=15 Someday You'll Want Me to Want You
TTITLE15=16 I'm Thinking Tonight of My Blue Eyes
TTITLE16=17 It Makes No Difference Now
TTITLE17=18 Tumbling Tumbleweeds
TTITLE18=19 Sail Along, Silvery Moon
TTITLE19=20 There's a Goldmine in the Sky
TTITLE20=21 Hang Your Head in Shame
TTITLE21=22 Goodbye Little Darlin' Goodbye
TTITLE22=23 Blue Yodel No. 5
TTITLE23=24 Trouble in Mind
TTITLE24=25 The One Rose (That's Left in My Heart)
EXTD=
EXTT0=
EXTT1=
EXTT2=
EXTT3=
EXTT4=
EXTT5=
EXTT6=
EXTT7=
EXTT8=
EXTT9=
EXTT10=
EXTT11=
EXTT12=
EXTT13=
EXTT14=
EXTT15=
EXTT16=
EXTT17=
EXTT18=
EXTT19=
EXTT20=
EXTT21=
EXTT22=
EXTT23=
EXTT24=
PLAYORDER=
